<svg width="71" height="70" viewBox="0 0 71 70" fill="none" xmlns="http://www.w3.org/2000/svg">
<rect x="0.00439453" width="70" height="70" fill="white"/>
<path fill-rule="evenodd" clip-rule="evenodd" d="M32.2789 15.64L27.1068 25.3922C27.048 25.5055 26.9619 25.6021 26.859 25.6777C26.7561 25.7533 26.6364 25.8037 26.5104 25.8247L15.637 27.7315C14.5114 27.9289 13.5874 28.7311 13.2346 29.8167C12.8818 30.9024 13.1569 32.0951 13.9528 32.9162L21.6302 40.8498C21.7184 40.9422 21.7856 41.0535 21.8255 41.1732C21.8654 41.295 21.8759 41.4231 21.8591 41.5512L20.3114 52.4813C20.1518 53.6111 20.6285 54.7388 21.5525 55.4107C22.4764 56.0827 23.6944 56.1877 24.7213 55.6858L34.6372 50.835C34.7527 50.7783 34.8787 50.751 35.0068 50.751V14C33.8623 14 32.8144 14.6321 32.2789 15.64Z" fill="#4A3AFF"/>
<path opacity="0.35" fill-rule="evenodd" clip-rule="evenodd" d="M48.3791 40.8477L56.0565 32.9141C56.8503 32.0931 57.1275 30.9003 56.7747 29.8146C56.4219 28.729 55.4979 27.9268 54.3723 27.7294L43.4989 25.8247C43.3729 25.8016 43.2532 25.7512 43.1503 25.6777C43.0474 25.6021 42.9613 25.5056 42.9025 25.3922L37.7304 15.638C37.1949 14.6321 36.147 14 35.0046 14V50.7489C35.1327 50.7489 35.2587 50.7783 35.3742 50.8329L45.2901 55.6837C46.317 56.1856 47.535 56.0785 48.4589 55.4086C49.3829 54.7367 49.8596 53.6111 49.7 52.4792L48.1523 41.5491C48.1334 41.4231 48.146 41.2929 48.1859 41.1711C48.2237 41.0514 48.2909 40.9401 48.3791 40.8477Z" fill="#4A3AFF"/>
</svg>
