<svg width="71" height="70" viewBox="0 0 71 70" fill="none" xmlns="http://www.w3.org/2000/svg">
<rect x="0.00439453" width="70" height="70" fill="white"/>
<path d="M50.6942 45.9769C50.2158 45.4986 47.4575 42.7403 46.0258 41.3086C44.8275 43.2119 43.2158 44.8236 41.3125 46.0219C42.7442 47.4536 45.5025 50.2119 45.9808 50.6903C47.2825 51.9919 49.3925 51.9919 50.6942 50.6903C51.9958 49.3886 51.9958 47.2786 50.6942 45.9769Z" fill="#4A3AFF"/>
<path opacity="0.35" d="M33.3379 48.3335C41.6222 48.3335 48.3379 41.6178 48.3379 33.3335C48.3379 25.0492 41.6222 18.3335 33.3379 18.3335C25.0536 18.3335 18.3379 25.0492 18.3379 33.3335C18.3379 41.6178 25.0536 48.3335 33.3379 48.3335Z" fill="#4A3AFF"/>
</svg>
