<svg width="71" height="70" viewBox="0 0 71 70" fill="none" xmlns="http://www.w3.org/2000/svg">
<rect x="0.00439453" width="70" height="70" fill="white"/>
<path opacity="0.35" d="M17.7537 54.4072V15.5933C17.7537 14.403 18.7197 13.437 19.91 13.437H45.7859C49.3589 13.437 52.2549 16.333 52.2549 19.906V50.0946C52.2549 53.6676 49.3589 56.5635 45.7859 56.5635H19.91C18.7197 56.5635 17.7537 55.5975 17.7537 54.4072Z" fill="#4A3AFF"/>
<path d="M40.395 24.2188C39.5627 24.2188 30.4457 24.2188 29.6134 24.2188C27.828 24.2188 26.3789 25.6678 26.3789 27.4532C26.3789 29.2387 27.828 30.6877 29.6134 30.6877C30.4457 30.6877 39.5627 30.6877 40.395 30.6877C42.1805 30.6877 43.6295 29.2387 43.6295 27.4532C43.6295 25.6678 42.1805 24.2188 40.395 24.2188Z" fill="#4A3AFF"/>
</svg>
